<svg xmlns="http://www.w3.org/2000/svg" width="16" height="16"><path fill="#222" d="M8.475 0a.497.497 0 0 0-.276.1L6.5 1.375 4.8.1a.5.5 0 0 0-.37-.094A.5.5 0 0 0 4.2.9L6 2.25V4H3C1.338 4 0 5.338 0 7v6c0 1.662 1.338 3 3 3h10c1.662 0 3-1.338 3-3V7c0-1.662-1.338-3-3-3H7V2.25L8.8.9a.5.5 0 0 0-.325-.9zM3 6h10c.554 0 1 .446 1 1v6c0 .554-.446 1-1 1H3c-.554 0-1-.446-1-1V7c0-.554.446-1 1-1zm2 1a2 2 0 0 0-2 2 2 2 0 0 0 2 2 2 2 0 0 0 2-2 2 2 0 0 0-2-2zm6 0a2 2 0 0 0-2 2 2 2 0 0 0 2 2 2 2 0 0 0 2-2 2 2 0 0 0-2-2zM5 8a1 1 0 0 1 1 1 1 1 0 0 1-1 1 1 1 0 0 1-1-1 1 1 0 0 1 1-1zm6 0a1 1 0 0 1 1 1 1 1 0 0 1-1 1 1 1 0 0 1-1-1 1 1 0 0 1 1-1zm-4.5 4a.499.499 0 1 0 0 1h3a.499.499 0 1 0 0-1z"/></svg>