<svg xmlns="http://www.w3.org/2000/svg" width="16" height="16">
    <path fill="#241f31" d="M13.5 7c-.277 0-.5.223-.5.5v2c0 .277.223.5.5.5h.5l-1 3h2l1-3V7.5c0-.277-.223-.5-.5-.5zM1 3 0 6v2.5c0 .277.223.5.5.5h2c.277 0 .5-.223.5-.5v-2c0-.277-.223-.5-.5-.5H2l1-3zm6.848-.031c1.644-.094 3.097 1.172 3.187 2.812 0 1.403-.379 1.922-1.594 2.844-.191.145-.324.25-.375.313-.05.062-.03.03-.03.03.007.528-.473 1-1 1s-1.009-.472-1-1c0-.503.226-.945.468-1.25a3.86 3.86 0 0 1 .719-.687c.203-.16.46-.383.687-.656.094-.113.13-.309.125-.438v-.03c-.031-.563-.5-.97-1.062-.938s-.97.437-.938 1h-2c-.09-1.64 1.172-2.907 2.813-3zm.187 8c.55 0 1 .449 1 1s-.45 1-1 1-1-.45-1-1 .45-1 1-1zm0 0"/>
</svg>
