<?xml version="1.0" encoding="UTF-8"?>
<svg height="128px" viewBox="0 0 128 128" width="128px" xmlns="http://www.w3.org/2000/svg" xmlns:xlink="http://www.w3.org/1999/xlink">
    <linearGradient id="a" gradientUnits="userSpaceOnUse">
        <stop offset="0" stop-color="#9a9996"/>
        <stop offset="0.5" stop-color="#deddda"/>
        <stop offset="1" stop-color="#9a9996"/>
    </linearGradient>
    <linearGradient id="b" gradientTransform="matrix(0.707107 -0.707107 0.707107 0.707107 -123.362482 -71.823376)" x1="50" x2="54" xlink:href="#a" y1="180" y2="180"/>
    <linearGradient id="c" gradientUnits="userSpaceOnUse">
        <stop offset="0" stop-color="#deddda"/>
        <stop offset="1" stop-color="#9a9996"/>
    </linearGradient>
    <radialGradient id="d" cx="54" cy="162" gradientTransform="matrix(0.707107 -0.707107 0.707107 0.707107 -123.362482 -71.823376)" r="6" xlink:href="#c"/>
    <linearGradient id="e" gradientUnits="userSpaceOnUse">
        <stop offset="0" stop-color="#deddda" stop-opacity="0"/>
        <stop offset="1" stop-color="#241f31" stop-opacity="0.2"/>
    </linearGradient>
    <radialGradient id="f" cx="54" cy="162" gradientTransform="matrix(0.707107 -0.707107 0.707107 0.707107 -123.362482 -71.823376)" r="6" xlink:href="#e"/>
    <linearGradient id="g" gradientTransform="matrix(-0.707107 -0.707107 -0.707107 0.707107 227.362488 -71.823372)" x1="50" x2="54" xlink:href="#a" y1="180" y2="180"/>
    <radialGradient id="h" cx="54" cy="162" gradientTransform="matrix(-0.707107 -0.707107 -0.707107 0.707107 227.362488 -71.823372)" r="6" xlink:href="#c"/>
    <radialGradient id="i" cx="54" cy="162" gradientTransform="matrix(-0.707107 -0.707107 -0.707107 0.707107 227.362488 -71.823372)" r="6" xlink:href="#e"/>
    <clipPath id="j">
        <path d="m 8 30 h 88 v 42 h -88 z m 0 0"/>
    </clipPath>
    <clipPath id="k">
        <path d="m 31 28 h 42 c 12.703125 0 23 10.296875 23 23 s -10.296875 23 -23 23 h -42 c -12.703125 0 -23 -10.296875 -23 -23 s 10.296875 -23 23 -23 z m 0 0"/>
    </clipPath>
    <linearGradient id="l" gradientUnits="userSpaceOnUse" x1="52" x2="52" y1="29" y2="74">
        <stop offset="0" stop-color="#ffffff" stop-opacity="0.101961"/>
        <stop offset="1" stop-color="#ffffff" stop-opacity="0"/>
    </linearGradient>
    <clipPath id="m">
        <path d="m 24 34 h 20 v 2 h -20 z m 0 4 h 20 v 2 h -20 z m 0 4 h 20 v 2 h -20 z m 0 4 h 20 v 2 h -20 z m 0 4 h 20 v 2 h -20 z m 0 0"/>
    </clipPath>
    <clipPath id="n">
        <path d="m 60 34 h 20 v 2 h -20 z m 0 4 h 20 v 2 h -20 z m 0 4 h 20 v 2 h -20 z m 0 4 h 20 v 2 h -20 z m 0 4 h 20 v 2 h -20 z m 0 0"/>
    </clipPath>
    <clipPath id="o">
        <path d="m 40 58 h 24 v 2 h -24 z m 0 4 h 24 v 2 h -24 z m 0 4 h 24 v 2 h -24 z m 0 0"/>
    </clipPath>
    <path d="m 27.957031 8.785156 l 2.828125 -2.828125 l 22.628906 22.628907 l -2.828124 2.828124 z m 0 0" fill="url(#b)"/>
    <path d="m 33.613281 3.128906 c 2.34375 2.34375 2.34375 6.144532 0 8.484375 c -2.339843 2.34375 -6.140625 2.34375 -8.484375 0 c -2.34375 -2.339843 -2.34375 -6.140625 0 -8.484375 c 2.34375 -2.34375 6.144532 -2.34375 8.484375 0 z m 0 0" fill="url(#d)"/>
    <path d="m 33.613281 3.128906 c 2.34375 2.34375 2.34375 6.144532 0 8.484375 c -2.339843 2.34375 -6.140625 2.34375 -8.484375 0 c -2.34375 -2.339843 -2.34375 -6.140625 0 -8.484375 c 2.34375 -2.34375 6.144532 -2.34375 8.484375 0 z m 0 0" fill="url(#f)"/>
    <path d="m 76.042969 8.785156 l -2.828125 -2.828125 l -22.628906 22.628907 l 2.828124 2.828124 z m 0 0" fill="url(#g)"/>
    <path d="m 70.386719 3.128906 c -2.34375 2.34375 -2.34375 6.144532 0 8.484375 c 2.339843 2.34375 6.140625 2.34375 8.484375 0 c 2.34375 -2.339843 2.34375 -6.140625 0 -8.484375 c -2.34375 -2.34375 -6.144532 -2.34375 -8.484375 0 z m 0 0" fill="url(#h)"/>
    <path d="m 70.386719 3.128906 c -2.34375 2.34375 -2.34375 6.144532 0 8.484375 c 2.339843 2.34375 6.140625 2.34375 8.484375 0 c 2.34375 -2.339843 2.34375 -6.140625 0 -8.484375 c -2.34375 -2.34375 -6.144532 -2.34375 -8.484375 0 z m 0 0" fill="url(#i)"/>
    <path d="m 56 52 h 40 c 15.464844 0 28 12.535156 28 28 s -12.535156 28 -28 28 h -40 c -15.464844 0 -28 -12.535156 -28 -28 s 12.535156 -28 28 -28 z m 0 0" fill="#ff7800"/>
    <path d="m 100 106 v 14 l -16 -14 z m 0 0" fill="#e66100" fill-rule="evenodd"/>
    <path d="m 28.023438 79 c -0.007813 0.332031 -0.023438 0.664062 -0.023438 1 c 0 15.511719 12.488281 28 28 28 h 40 c 15.511719 0 28 -12.488281 28 -28 c 0 -0.335938 -0.015625 -0.667969 -0.027344 -1 c -0.523437 15.042969 -12.796875 27 -27.972656 27 h -40 c -15.175781 0 -27.449219 -11.957031 -27.976562 -27 z m 0 0" fill="#e66100"/>
    <path d="m 100 104 v 14 l -16 -14 z m 0 0" fill="#ff7800" fill-rule="evenodd"/>
    <path d="m 32 24 h 40 c 15.464844 0 28 12.535156 28 28 s -12.535156 28 -28 28 h -40 c -15.464844 0 -28 -12.535156 -28 -28 s 12.535156 -28 28 -28 z m 0 0" fill="#3584e4"/>
    <path d="m 31 28 h 42 c 12.703125 0 23 10.296875 23 23 s -10.296875 23 -23 23 h -42 c -12.703125 0 -23 -10.296875 -23 -23 s 10.296875 -23 23 -23 z m 0 0" fill="#241f31"/>
    <g clip-path="url(#j)">
        <g clip-path="url(#k)">
            <path d="m 6 70 h 92 v 2 h -92 z m 0 -4 h 92 v 2 h -92 z m 0 -4 h 92 v 2 h -92 z m 0 -4 h 92 v 2 h -92 z m 0 -4 h 92 v 2 h -92 z m 0 -4 h 92 v 2 h -92 z m 0 -4 h 92 v 2 h -92 z m 0 -4 h 92 v 2 h -92 z m 0 -4 h 92 v 2 h -92 z m 0 -4 h 92 v 2 h -92 z m 0 -4 h 92 v 2 h -92 z m 0 0" fill="url(#l)"/>
        </g>
    </g>
    <path d="m 4.023438 51 c -0.007813 0.332031 -0.023438 0.664062 -0.023438 1 c 0 15.511719 12.488281 28 28 28 h 40 c 15.511719 0 28 -12.488281 28 -28 c 0 -0.335938 -0.015625 -0.667969 -0.027344 -1 c -0.523437 15.042969 -12.796875 27 -27.972656 27 h -40 c -15.175781 0 -27.449219 -11.957031 -27.976562 -27 z m 0 0" fill="#1a5fb4"/>
    <path d="m 28 78 v 14 l 16 -14 z m 0 0" fill="#1a5fb4" fill-rule="evenodd"/>
    <path d="m 28 76 v 14 l 16 -14 z m 0 0" fill="#3584e4" fill-rule="evenodd"/>
    <g clip-path="url(#m)">
        <path d="m 44 44 c 0 5.523438 -4.476562 10 -10 10 s -10 -4.476562 -10 -10 s 4.476562 -10 10 -10 s 10 4.476562 10 10 z m 0 0" fill="#62a0ea"/>
    </g>
    <g clip-path="url(#n)">
        <path d="m 80 44 c 0 5.523438 -4.476562 10 -10 10 s -10 -4.476562 -10 -10 s 4.476562 -10 10 -10 s 10 4.476562 10 10 z m 0 0" fill="#62a0ea"/>
    </g>
    <g clip-path="url(#o)">
        <path d="m 40 56 c 0 4.285156 2.289062 8.25 6 10.394531 c 3.710938 2.140625 8.289062 2.140625 12 0 c 3.710938 -2.144531 6 -6.109375 6 -10.394531 h -4 c 0 2.863281 -1.523438 5.496094 -4 6.925781 c -2.476562 1.433594 -5.523438 1.433594 -8 0 c -2.476562 -1.429687 -4 -4.0625 -4 -6.925781 z m 0 0" fill="#62a0ea"/>
    </g>
    <g fill="#c0bfbc">
        <path d="m 105.625 70.003906 c 3.289062 -0.1875 6.195312 2.34375 6.375 5.625 c 0 2.804688 -0.757812 3.84375 -3.1875 5.6875 c -0.382812 0.289063 -0.648438 0.5 -0.75 0.625 s -0.0625 0.0625 -0.0625 0.0625 c 0.015625 1.054688 -0.945312 2 -2 2 s -2.015625 -0.945312 -2 -2 c 0 -1.007812 0.453125 -1.890625 0.9375 -2.5 c 0.492188 -0.617187 0.984375 -1.03125 1.4375 -1.375 c 0.40625 -0.320312 0.921875 -0.765625 1.375 -1.3125 c 0.1875 -0.226562 0.257812 -0.617187 0.25 -0.875 v -0.0625 c -0.0625 -1.125 -1 -1.9375 -2.125 -1.875 s -1.9375 0.875 -1.875 2 h -4 c -0.179688 -3.28125 2.34375 -5.8125 5.625 -6 z m 0.375 16 c 1.101562 0 2 0.898438 2 2 c 0 1.101563 -0.898438 2 -2 2 s -2 -0.898437 -2 -2 c 0 -1.101562 0.898438 -2 2 -2 z m 0 0"/>
        <path d="m 91.625 70.003906 c 3.289062 -0.1875 6.195312 2.34375 6.375 5.625 c 0 2.804688 -0.757812 3.84375 -3.1875 5.6875 c -0.382812 0.289063 -0.648438 0.5 -0.75 0.625 s -0.0625 0.0625 -0.0625 0.0625 c 0.015625 1.054688 -0.945312 2 -2 2 s -2.015625 -0.945312 -2 -2 c 0 -1.007812 0.453125 -1.890625 0.9375 -2.5 c 0.492188 -0.617187 0.984375 -1.03125 1.4375 -1.375 c 0.40625 -0.320312 0.921875 -0.765625 1.375 -1.3125 c 0.1875 -0.226562 0.257812 -0.617187 0.25 -0.875 v -0.0625 c -0.0625 -1.125 -1 -1.9375 -2.125 -1.875 s -1.9375 0.875 -1.875 2 h -4 c -0.179688 -3.28125 2.34375 -5.8125 5.625 -6 z m 0.375 16 c 1.101562 0 2 0.898438 2 2 c 0 1.101563 -0.898438 2 -2 2 s -2 -0.898437 -2 -2 c 0 -1.101562 0.898438 -2 2 -2 z m 0 0"/>
        <path d="m 77.625 70.003906 c 3.289062 -0.1875 6.195312 2.34375 6.375 5.625 c 0 2.804688 -0.757812 3.84375 -3.1875 5.6875 c -0.382812 0.289063 -0.648438 0.5 -0.75 0.625 s -0.0625 0.0625 -0.0625 0.0625 c 0.015625 1.054688 -0.945312 2 -2 2 s -2.015625 -0.945312 -2 -2 c 0 -1.007812 0.453125 -1.890625 0.9375 -2.5 c 0.492188 -0.617187 0.984375 -1.03125 1.4375 -1.375 c 0.40625 -0.320312 0.921875 -0.765625 1.375 -1.3125 c 0.1875 -0.226562 0.257812 -0.617187 0.25 -0.875 v -0.0625 c -0.0625 -1.125 -1 -1.9375 -2.125 -1.875 s -1.9375 0.875 -1.875 2 h -4 c -0.179688 -3.28125 2.34375 -5.8125 5.625 -6 z m 0.375 16 c 1.101562 0 2 0.898438 2 2 c 0 1.101563 -0.898438 2 -2 2 s -2 -0.898437 -2 -2 c 0 -1.101562 0.898438 -2 2 -2 z m 0 0"/>
    </g>
    <path d="m 105.625 68.003906 c 3.289062 -0.1875 6.195312 2.34375 6.375 5.625 c 0 2.804688 -0.757812 3.84375 -3.1875 5.6875 c -0.382812 0.289063 -0.648438 0.5 -0.75 0.625 s -0.0625 0.0625 -0.0625 0.0625 c 0.015625 1.054688 -0.945312 2 -2 2 s -2.015625 -0.945312 -2 -2 c 0 -1.007812 0.453125 -1.890625 0.9375 -2.5 c 0.492188 -0.617187 0.984375 -1.03125 1.4375 -1.375 c 0.40625 -0.320312 0.921875 -0.765625 1.375 -1.3125 c 0.1875 -0.226562 0.257812 -0.617187 0.25 -0.875 v -0.0625 c -0.0625 -1.125 -1 -1.9375 -2.125 -1.875 s -1.9375 0.875 -1.875 2 h -4 c -0.179688 -3.28125 2.34375 -5.8125 5.625 -6 z m 0.375 16 c 1.101562 0 2 0.898438 2 2 c 0 1.101563 -0.898438 2 -2 2 s -2 -0.898437 -2 -2 c 0 -1.101562 0.898438 -2 2 -2 z m 0 0" fill="#ffffff"/>
    <path d="m 91.625 68.003906 c 3.289062 -0.1875 6.195312 2.34375 6.375 5.625 c 0 2.804688 -0.757812 3.84375 -3.1875 5.6875 c -0.382812 0.289063 -0.648438 0.5 -0.75 0.625 s -0.0625 0.0625 -0.0625 0.0625 c 0.015625 1.054688 -0.945312 2 -2 2 s -2.015625 -0.945312 -2 -2 c 0 -1.007812 0.453125 -1.890625 0.9375 -2.5 c 0.492188 -0.617187 0.984375 -1.03125 1.4375 -1.375 c 0.40625 -0.320312 0.921875 -0.765625 1.375 -1.3125 c 0.1875 -0.226562 0.257812 -0.617187 0.25 -0.875 v -0.0625 c -0.0625 -1.125 -1 -1.9375 -2.125 -1.875 s -1.9375 0.875 -1.875 2 h -4 c -0.179688 -3.28125 2.34375 -5.8125 5.625 -6 z m 0.375 16 c 1.101562 0 2 0.898438 2 2 c 0 1.101563 -0.898438 2 -2 2 s -2 -0.898437 -2 -2 c 0 -1.101562 0.898438 -2 2 -2 z m 0 0" fill="#ffffff"/>
    <path d="m 77.625 68.003906 c 3.289062 -0.1875 6.195312 2.34375 6.375 5.625 c 0 2.804688 -0.757812 3.84375 -3.1875 5.6875 c -0.382812 0.289063 -0.648438 0.5 -0.75 0.625 s -0.0625 0.0625 -0.0625 0.0625 c 0.015625 1.054688 -0.945312 2 -2 2 s -2.015625 -0.945312 -2 -2 c 0 -1.007812 0.453125 -1.890625 0.9375 -2.5 c 0.492188 -0.617187 0.984375 -1.03125 1.4375 -1.375 c 0.40625 -0.320312 0.921875 -0.765625 1.375 -1.3125 c 0.1875 -0.226562 0.257812 -0.617187 0.25 -0.875 v -0.0625 c -0.0625 -1.125 -1 -1.9375 -2.125 -1.875 s -1.9375 0.875 -1.875 2 h -4 c -0.179688 -3.28125 2.34375 -5.8125 5.625 -6 z m 0.375 16 c 1.101562 0 2 0.898438 2 2 c 0 1.101563 -0.898438 2 -2 2 s -2 -0.898437 -2 -2 c 0 -1.101562 0.898438 -2 2 -2 z m 0 0" fill="#ffffff"/>
</svg>
